<?xml version="1.0" encoding="UTF-8" standalone="no"?>
<!DOCTYPE svg PUBLIC "-//W3C//DTD SVG 20010904//EN"
"http://www.w3.org/TR/2001/REC-SVG-20010904/DTD/svg10.dtd">
<!-- Created with Sodipodi ("http://www.sodipodi.com/") -->
<svg
   xmlns="http://www.w3.org/2000/svg"
   xmlns:odm="http://product.corel.com/CGS/11/cddns/"
   xml:space="preserve"
   width="500pt"
   height="543pt"
   style="shape-rendering:geometricPrecision; text-rendering:geometricPrecision; image-rendering:optimizeQuality; fill-rule:evenodd"
   viewBox="0 0 8268 11692"
   xmlns:sodipodi="http://sodipodi.sourceforge.net/DTD/sodipodi-0.dtd"
   xmlns:xlink="http://www.w3.org/1999/xlink"
   id="svg626"
   sodipodi:version="0.34"
   sodipodi:docname="D:\Dokumenty\Wikipedie\images\svg\ASL\Sign language_C.svg"><sodipodi:namedview
   id="base" /><defs
   id="defs627"><style
   type="text/css"
   id="style628"><![CDATA[
    .fil0 {fill:#1F1A17}
   ]]></style></defs><g
   id="Layer 1"
   transform="matrix(1.550447,0,0,1.550483,-2544.55,-3218.122)"><path
   class="fil0"
   d="M4683 2158c64,-9 162,-13 291,-13 408,0 790,81 1146,243 357,162 692,386 1007,673 65,176 51,287 -42,334 -92,46 -199,115 -319,208 -120,93 -227,134 -319,125 -65,9 -172,-28 -320,-111 -148,-84 -241,-125 -278,-125 -55,0 -115,32 -180,97l-403 0c-93,111 -192,306 -299,583 -106,278 -196,473 -270,584 18,166 81,338 187,514 106,176 215,342 326,500 74,37 149,55 223,55 74,0 194,-60 361,-180 166,-121 296,-181 389,-181 240,-185 414,-310 520,-375 107,-65 239,-97 396,-97 84,0 167,14 250,41 139,84 232,149 278,195 46,46 74,102 83,167 0,148 -97,284 -291,409 -195,125 -310,211 -347,257 -102,278 -341,491 -716,639 -375,148 -620,236 -736,264 -116,28 -282,174 -500,438 -217,263 -410,423 -576,479 -176,37 -347,74 -514,111 -195,65 -347,204 -459,417 -111,212 -219,412 -326,597 -106,185 -231,298 -375,340 -143,42 -317,86 -521,132 -203,46 -356,69 -458,69 -74,0 -130,-4 -167,-13 -305,-297 -578,-667 -819,-1112 148,-351 296,-708 444,-1069 621,-1287 998,-2086 1132,-2396 134,-310 262,-678 382,-1104 241,-120 477,-315 708,-583 250,-324 445,-570 584,-737 65,-18 141,-62 229,-131 88,-70 188,-151 299,-244zm333 792c-19,37 -44,67 -76,90 -33,24 -63,21 -91,-7 -203,28 -370,51 -500,70 -129,18 -240,74 -333,167 -28,46 -60,92 -97,138 -37,47 -79,47 -125,0 -130,223 -304,454 -521,695 -218,241 -424,468 -618,680 -361,852 -651,1514 -868,1987 -218,472 -327,754 -327,847 0,148 -60,236 -180,264 -84,194 -167,389 -250,583 0,65 28,120 83,167 56,46 167,185 333,416 167,232 320,348 459,348 74,0 148,-19 222,-56 0,-157 35,-322 104,-493 70,-171 141,-336 215,-493l-347 -42c-55,-46 -99,-85 -132,-118 -32,-32 -39,-67 -21,-104 149,102 292,139 431,111l-194 -55c-47,-19 -88,-49 -125,-91 -37,-41 -37,-81 0,-118 120,74 291,111 513,111 65,0 135,0 209,0 92,-18 157,-27 194,-27 315,-213 535,-496 660,-848 125,-351 187,-754 187,-1208 0,-102 -4,-211 -13,-326 -10,-116 -14,-206 -14,-271 -74,28 -135,41 -181,41 -65,0 -127,-11 -187,-34 -61,-23 -132,-58 -216,-104l292 0c204,0 357,-33 458,-98 102,-277 204,-560 306,-847 -74,0 -111,9 -111,28 -56,28 -116,42 -181,42 -65,0 -111,-19 -139,-56 186,0 313,-49 382,-146 70,-97 105,-183 105,-257 0,-83 -51,-153 -153,-208 83,18 171,32 264,42 111,-56 206,-109 284,-160 79,-51 114,-127 105,-229 111,83 259,125 444,125 74,0 150,-5 229,-14 79,-9 155,-19 229,-28 56,-28 111,-72 167,-132 56,-60 60,-132 14,-215 -93,9 -220,-21 -382,-90 -162,-70 -276,-105 -340,-105 -37,0 -93,10 -167,28zm-694 -389c-149,121 -376,382 -681,785 -306,403 -528,660 -667,771l-208 416c37,-55 65,-101 83,-138 158,-112 322,-280 493,-507 172,-227 364,-484 577,-771l916 -278 1042 69c83,149 125,288 125,417 0,56 -5,97 -14,125 111,56 199,97 264,125 65,28 139,42 222,42 56,0 111,-16 167,-49 56,-32 99,-62 132,-90 32,-28 44,-70 35,-125 -65,-9 -135,-16 -209,-21 -74,-5 -127,-53 -159,-146 -33,-92 -109,-171 -230,-236 -120,-65 -236,-129 -347,-194 -46,-37 -109,-37 -187,0 -79,37 -132,55 -160,55l42 -166c-130,0 -334,-14 -611,-42 -278,-28 -487,-42 -625,-42zm2388 334c-37,55 -37,101 0,138 37,38 70,65 98,84 37,28 76,46 118,55 41,10 71,-9 90,-55 -93,-111 -194,-185 -306,-222zm-1097 -584c-65,0 -162,-9 -291,-28 -130,-18 -232,-27 -306,-27 -83,0 -157,9 -222,27 -65,19 -125,61 -181,125 -46,0 -76,0 -90,0 -14,0 -21,14 -21,42l1056 83c129,56 312,142 548,257 236,116 401,188 493,216l-55 -125c74,-65 74,-125 0,-181 -111,-55 -176,-92 -195,-111 -74,-9 -148,-18 -222,-28l28 -69c-74,-37 -171,-72 -292,-104 -120,-33 -204,-58 -250,-77zm153 681l-97 -14 97 14zm722 97c-28,28 -28,53 0,76 28,24 56,44 84,63 37,37 87,32 152,-14l-236 -125zm431 264l55 0c28,-37 56,-79 84,-125 -121,0 -167,42 -139,125zm-2236 472c120,56 203,79 250,70 46,-19 85,-63 118,-132 32,-70 58,-123 76,-160 -83,-37 -169,-16 -257,62 -88,79 -150,132 -187,160zm-1556 -69c-74,83 -143,166 -208,250l208 -250zm1458 125l-41 291c-74,84 -144,225 -209,424 -64,199 -125,345 -180,437 65,-37 123,-120 173,-250 51,-129 95,-203 132,-222 -55,121 -95,211 -118,271 -23,60 -30,114 -20,160 157,-102 275,-239 354,-410 78,-171 136,-363 173,-576 -46,9 -97,-10 -152,-56 -56,-46 -93,-69 -112,-69zm-83 97c-65,102 -83,167 -55,194l55 -194zm-583 1403l69 722c28,111 42,222 42,333 0,195 -28,380 -84,556 -55,176 -113,324 -173,444 -60,121 -116,220 -167,299 -51,79 -62,146 -35,201l1112 -347 680 -667c-37,-268 -74,-500 -111,-694 -37,-194 -130,-343 -278,-445 19,-92 -25,-164 -132,-215 -106,-51 -169,-109 -187,-173 -19,-167 -33,-334 -42,-500 -231,203 -463,365 -694,486zm2361 111c28,305 83,569 167,792 -84,-84 -149,-200 -195,-348 -46,-148 -79,-259 -97,-333l-97 28c-111,65 -206,118 -285,159 -79,42 -118,105 -118,188 0,37 14,83 42,139 -47,-176 -163,-250 -348,-222 0,166 28,319 84,458 0,102 4,208 14,319 9,112 32,190 69,237 352,-167 704,-338 1056,-514 92,-10 187,-72 284,-188 97,-116 169,-201 216,-257 27,-83 125,-169 291,-257 167,-88 250,-173 250,-257 0,-46 -18,-102 -55,-166 -121,-121 -264,-181 -431,-181 -148,0 -296,39 -444,118 -149,79 -283,174 -403,285zm-1583 -361c-10,92 37,199 138,319l-138 -319zm666 1319l-28 -250 28 250zm-1542 653l84 -319 -84 319zm-305 986c-139,222 -255,412 -347,570 -93,157 -153,310 -181,458 74,-185 160,-361 257,-528 97,-167 206,-324 326,-472l-55 -28zm-278 83c-120,130 -224,274 -312,431 -88,157 -132,301 -132,431l444 -862zm-555 139c-130,111 -230,257 -299,438 -69,180 -123,377 -160,590 84,19 151,21 202,7 51,-14 118,-44 201,-90 0,-139 58,-331 174,-577 115,-245 178,-377 187,-395 -129,9 -231,18 -305,27zm1430 -2264c84,-64 162,-113 236,-145 74,-33 153,-44 236,-35 -176,28 -333,88 -472,180z"
   id="path630" /></g></svg>
